<?xml version="1.0" encoding="UTF-8"?>
<svg version="1.1" xmlns="http://www.w3.org/2000/svg" width="512" height="512">
<path d="M0 0 C6.59449615 5.81867308 12.89770973 12.12429505 17 20 C17 20.66 17 21.32 17 22 C17.66 21.67 18.32 21.34 19 21 C21.76039913 20.90099834 24.49005623 20.86108432 27.25 20.875 C28.37728516 20.86919922 28.37728516 20.86919922 29.52734375 20.86328125 C32.95330171 20.86926023 36.07139685 21.01232925 39.4609375 21.59765625 C40.29882812 21.73042969 41.13671875 21.86320312 42 22 C42.680625 21.2884375 42.680625 21.2884375 43.375 20.5625 C45 19 45 19 48.5 18.375 C57.31277033 18.71519885 66.15299525 26.86686523 72 33 C80.68742782 43.44339727 87.62222198 56.69396719 86.7578125 70.52734375 C85.88350388 79.6329809 85.88350388 79.6329809 88.97265625 87.83984375 C91.54069315 90.03524092 91.54069315 90.03524092 94.32421875 91.98046875 C102.9428567 98.48533856 106.84233475 110.093928 108.56640625 120.37890625 C110.09043917 134.73690058 106.56587724 148.07911025 97.99609375 159.72265625 C89.45767951 169.84961268 78.12562096 176.98575289 64.72900391 178.20703125 C50.71478741 178.99608828 40.3734864 176.66062141 28 170 C16.56653568 194.8845988 5.49613496 223.67758428 2 251 C2.33 251.33 2.66 251.66 3 252 C3.556875 251.59007812 4.11375 251.18015625 4.6875 250.7578125 C11.86256174 245.69163715 18.01111338 243.22509598 27 244 C33.52957095 245.27589318 38.25612997 247.45776496 43.30859375 251.79296875 C45.06067259 253.29044124 45.06067259 253.29044124 48 253 C49.74313797 252.01750405 51.48614604 251.03213704 53.18359375 249.97265625 C59.48121854 246.60037975 68.06904891 247.09870458 74.828125 248.6484375 C82.15361673 251.27752502 86.75733671 255.5274891 90.9375 262 C92.05813896 264.76424276 91.95845133 266.36064249 91.609375 269.390625 C91.14329074 273.65443284 90.97049433 276.81736399 92 281 C95.85175722 285.2999055 101.23622316 287.9188648 106.15869141 290.81396484 C111.80418085 294.45037266 114.97516382 300.7545689 117 307 C117.30636284 309.7324253 117.47907305 312.1567118 117.4375 314.875 C117.42920166 315.57753906 117.42090332 316.28007812 117.41235352 317.00390625 C117.13046434 325.6872968 114.09775289 331.62994447 108.2734375 337.9375 C96.07954545 349 96.07954545 349 91 349 C91.33 349.66 91.66 350.32 92 351 C92.6354172 358.93750664 93.10715317 366.49445966 88 373 C82.74005945 379.11753955 75.52087887 382.19712709 67.609375 383.34765625 C59.97610741 383.65458834 53.36376559 381.04966901 47 377 C46.34 377 45.68 377 45 377 C44.319375 377.7425 43.63875 378.485 42.9375 379.25 C37.39763175 384.8537284 31.31187121 386.28098904 23.5625 386.5625 C11.64293126 386.15884927 5.07213781 380.63986546 -3.21484375 372.671875 C-6.37350941 369.64168242 -9.65132548 366.81593084 -13 364 C-13.24492187 364.88558594 -13.48984375 365.77117187 -13.7421875 366.68359375 C-16.82602011 374.81456855 -24.27610115 381.25276195 -32 385 C-39.41092783 388.32020774 -46.19834669 389.21078233 -54.31640625 388.76171875 C-55.20284317 388.71569016 -56.08928009 388.66966156 -57.00257874 388.62223816 C-74.00032492 387.66921106 -90.97087437 386.19817236 -107.9375 384.8125 C-108.89104496 384.73485413 -109.84458992 384.65720825 -110.82703018 384.57720947 C-142.95702067 381.95860019 -175.01266164 379.04198406 -207 375 C-208.0546344 374.86742798 -209.1092688 374.73485596 -210.19586182 374.5982666 C-365.76567242 354.97042279 -365.76567242 354.97042279 -392 327 C-395.98620278 321.64354001 -395.77045653 315.42047108 -395 309 C-393.5 305.6875 -393.5 305.6875 -391 303 C-390.26523437 302.19369141 -390.26523437 302.19369141 -389.515625 301.37109375 C-380.48769094 292.44302622 -367.43062716 287.84558626 -355.59765625 283.91015625 C-353.10194062 283.24644525 -353.10194062 283.24644525 -352 282 C-352.51046875 281.69449219 -353.0209375 281.38898438 -353.546875 281.07421875 C-374.25588176 268.03929428 -388.27693131 247.73295153 -394 224 C-397.18366364 207.13129052 -396.22717013 188.35380244 -391 172 C-390.78569336 171.3208252 -390.57138672 170.64165039 -390.35058594 169.94189453 C-379.6432249 137.01714897 -356.34223737 110.30251887 -325.82885742 94.19970703 C-314.69857416 88.63394003 -302.43323363 84.14989444 -290 83 C-289.88785156 81.69417969 -289.77570313 80.38835937 -289.66015625 79.04296875 C-287.51298419 59.93500455 -277.40616456 41.58244094 -263 29 C-257.12452068 24.38740014 -250.68282695 19.38096663 -243 19 C-238.88642838 20.35411895 -237.60223341 22.85223026 -235.5390625 26.53125 C-234.90226563 27.65273437 -234.26546875 28.77421875 -233.609375 29.9296875 C-232.94752825 31.1195757 -232.28607182 32.30968109 -231.625 33.5 C-230.32627994 35.80251167 -229.02681071 38.10460095 -227.7265625 40.40625 C-227.10168945 41.52257812 -226.47681641 42.63890625 -225.83300781 43.7890625 C-223.7013656 47.52312728 -221.45124904 51.17226901 -219.14208984 54.79882812 C-217.26474618 58.41706893 -216.72234163 60.99615818 -217.8125 64.9375 C-220.48619075 68.68066705 -223.25077057 70.08632967 -227.22265625 72.28515625 C-232.77627415 75.71418334 -237.4008231 80.4008231 -242 85 C-240.87464844 85.4125 -239.74929687 85.825 -238.58984375 86.25 C-224.74024796 91.41988856 -212.04934573 97.25227103 -200.26953125 106.3359375 C-198.23433545 107.82818089 -196.29056057 108.95740002 -194 110 C-193.52433594 108.89205078 -193.52433594 108.89205078 -193.0390625 107.76171875 C-188.86854228 98.69486953 -183.44387427 90.62924951 -175 85 C-174.85600915 81.98219169 -174.86997335 79.13229773 -175 76.125 C-175.32894197 60.74263452 -171.03265518 48.39417496 -162 36 C-161.58363281 35.40445313 -161.16726562 34.80890625 -160.73828125 34.1953125 C-154.16132163 25.6235393 -143.28635569 18.97195606 -133 16 C-132.06220703 15.72422119 -132.06220703 15.72422119 -131.10546875 15.44287109 C-125.7415608 14.03832364 -120.99948791 13.99860438 -115.48657227 14.33374023 C-106.24187456 15.04313255 -106.24187456 15.04313255 -97.78515625 12.02734375 C-95.58541231 9.46419747 -93.78949976 6.86067919 -92 4 C-68.9975941 -21.86469623 -25.76873646 -19.58423971 0 0 Z M-117 169 C-118.93256137 169.85924201 -120.82323271 170.81370184 -122.6875 171.8125 C-130.06967676 175.76154246 -136.67602294 177.28519632 -144.9375 177.625 C-146.10635742 177.68300781 -146.10635742 177.68300781 -147.29882812 177.7421875 C-149.19887379 177.83544127 -151.09940278 177.91875962 -153 178 C-152.855625 178.72058594 -152.71125 179.44117188 -152.5625 180.18359375 C-148.38910139 204.32554543 -150.83844915 225.92598491 -161 248 C-161.33 248.99 -161.66 249.98 -162 251 C-147.07591612 249.91789707 -132.15476024 248.79672224 -117.2366333 247.63540649 C-115.54314188 247.50392928 -113.84957905 247.37336855 -112.15594482 247.2437439 C-109.75349409 247.05961015 -107.35133596 246.87202246 -104.94921875 246.68359375 C-103.87726006 246.60241302 -103.87726006 246.60241302 -102.78364563 246.51959229 C-98.81091932 246.20371857 -94.92038879 245.71616973 -91 245 C-91.63643023 238.24094984 -93.20756079 231.95946016 -95.0625 225.4375 C-95.37195557 224.3448584 -95.68141113 223.2522168 -96.00024414 222.12646484 C-100.31223533 207.16227038 -105.40875353 192.51023754 -111.375 178.125 C-111.70878662 177.31562988 -112.04257324 176.50625977 -112.38647461 175.67236328 C-113.85182501 171.62517391 -113.85182501 171.62517391 -117 169 Z M-49 191 C-47.68 195.29 -46.36 199.58 -45 204 C-44.34 204 -43.68 204 -43 204 C-41.68 199.71 -40.36 195.42 -39 191 C-42.3 191 -45.6 191 -49 191 Z " fill="#010100" transform="translate(395,69)"/>
<path d="M0 0 C5.99935795 -0.69018489 9.35071105 2.30499489 13.81933594 5.80786133 C14.73585937 6.55745117 15.65238281 7.30704102 16.59667969 8.0793457 C17.99466797 9.18632812 17.99466797 9.18632812 19.42089844 10.31567383 C21.15152506 11.68751201 22.87592706 13.06726801 24.59179688 14.45751953 C25.3359082 15.05459717 26.08001953 15.6516748 26.84667969 16.2668457 C27.53044678 16.82742676 28.21421387 17.38800781 28.91870117 17.96557617 C31.39468767 19.63671813 33.54446424 19.91391487 36.50537109 19.79663086 C41.60115738 18.64356973 45.77635239 15.35675988 50.03417969 12.4543457 C51.96509612 11.17689137 53.89608329 9.89954397 55.82714844 8.62231445 C57.09401489 7.76609497 57.09401489 7.76609497 58.38647461 6.89257812 C59.19834229 6.35608643 60.01020996 5.81959473 60.84667969 5.2668457 C61.67208252 4.68201416 62.49748535 4.09718262 63.34790039 3.49462891 C65.84667969 2.2668457 65.84667969 2.2668457 68.38208008 2.41796875 C70.95980263 3.30580841 72.9908199 4.37173696 75.28027344 5.84887695 C76.09431641 6.36901367 76.90835938 6.88915039 77.74707031 7.42504883 C79.00293945 8.24392578 79.00293945 8.24392578 80.28417969 9.0793457 C81.11755859 9.61366211 81.9509375 10.14797852 82.80957031 10.69848633 C83.62490234 11.22249023 84.44023437 11.74649414 85.28027344 12.28637695 C86.07288574 12.79507324 86.86549805 13.30376953 87.68212891 13.82788086 C89.48810506 15.02847002 91.22647373 16.32996571 92.94433594 17.65356445 C96.70396539 19.74337194 99.71454871 20.34212493 103.84667969 19.2668457 C107.17394903 17.38979268 110.00299619 15.04676697 112.90917969 12.5793457 C115.18795463 10.71209636 117.46916845 8.84817611 119.75732422 6.99243164 C121.04823064 5.9262799 122.31584376 4.83025683 123.54150391 3.68969727 C128.02853303 -0.16874048 131.85740479 -0.1854334 137.65136719 0.1340332 C138.70582031 0.21911133 139.76027344 0.30418945 140.84667969 0.3918457 C141.90113281 0.4537207 142.95558594 0.5155957 144.04199219 0.5793457 C146.98250316 0.76358825 149.91216884 1.00549373 152.84667969 1.2668457 C153.93613892 1.33379639 153.93613892 1.33379639 155.04760742 1.40209961 C157.96076363 1.65555071 159.5171703 1.9423835 161.63183594 4.0246582 C173.34026181 25.72284194 180.35278603 50.93639314 173.82788086 75.39941406 C171.73577025 82.36990239 168.66355242 89.10836617 164.96411133 95.37353516 C163.80063469 97.27954449 163.80063469 97.27954449 162.82104492 99.43164062 C160.57913122 103.3983793 158.87746572 104.97914696 154.41601562 106.22436523 C150.18730496 106.93141885 145.93179051 107.26328956 141.65917969 107.5793457 C139.44648779 107.76833092 137.23551373 107.96775428 135.02507019 108.18144226 C133.02844238 108.3706748 131.02897219 108.52917039 129.02954102 108.68603516 C125.89937301 109.0243786 125.89937301 109.0243786 123.92749023 110.63476562 C122.21295614 113.22380119 122.47000625 115.25345823 122.84667969 118.2668457 C124.37114604 120.28138229 125.25445215 121.15441465 127.76025391 121.63012695 C135.90298745 121.44765673 143.91287796 120.36368193 151.97167969 119.2668457 C154.10429282 118.9780392 156.23708705 118.69131622 158.37081909 118.41088867 C160.3011188 118.15708142 162.2304309 117.89579531 164.15966797 117.6340332 C168.10167649 117.24145071 171.8885241 117.20562302 175.84667969 117.2668457 C175.86855347 119.10629761 175.86855347 119.10629761 175.89086914 120.98291016 C175.94880052 125.52861836 176.02603349 130.07382851 176.10913086 134.61914062 C176.14240455 136.58715741 176.17042884 138.55527019 176.19311523 140.5234375 C176.22661646 143.35108383 176.27892932 146.17784853 176.33496094 149.00512695 C176.34454582 150.3271386 176.34454582 150.3271386 176.35432434 151.67585754 C176.3741185 152.49648178 176.39391266 153.31710602 176.41430664 154.16259766 C176.4254097 154.88429642 176.43651276 155.60599518 176.44795227 156.3495636 C176.96535419 158.83749245 177.84665028 159.73614438 179.84667969 161.2668457 C182.84667969 161.85017904 182.84667969 161.85017904 185.84667969 161.2668457 C187.91184348 159.48461026 188.74034012 157.98219498 189.14193726 155.28063965 C189.2914868 152.7465853 189.34033687 150.22713292 189.35839844 147.6887207 C189.37634964 146.76214661 189.39430084 145.83557251 189.41279602 144.88092041 C189.4669067 141.9262749 189.50079726 138.97179101 189.53417969 136.0168457 C189.56735208 134.01161488 189.60184167 132.00640538 189.63769531 130.0012207 C189.72263371 125.08987896 189.78944141 120.17858522 189.84667969 115.2668457 C207.43221791 113.44198671 225.02716488 111.88225667 242.65917969 110.5793457 C243.54217743 110.51290863 244.42517517 110.44647156 245.33493042 110.37802124 C247.88673268 110.18695896 250.43887104 110.00135293 252.99121094 109.81762695 C253.73813202 109.76152252 254.4850531 109.70541809 255.25460815 109.64761353 C260.79062401 109.26002051 266.29832692 109.20958292 271.84667969 109.2668457 C271.85547905 110.15554352 271.85547905 110.15554352 271.86445618 111.06219482 C271.92837341 117.2267558 272.01278871 123.39079391 272.10913086 129.55493164 C272.1423922 131.85564278 272.17042032 134.15643576 272.19311523 136.45727539 C272.22663842 139.76394538 272.27895429 143.06986458 272.33496094 146.3762207 C272.34454582 147.9201651 272.34454582 147.9201651 272.35432434 149.49530029 C272.3741185 150.45599426 272.39391266 151.41668823 272.41430664 152.40649414 C272.4254097 153.25032654 272.43651276 154.09415894 272.44795227 154.96356201 C272.93983536 157.80496757 273.85579171 159.2003076 275.84667969 161.2668457 C278.96944842 161.72224948 280.89997443 161.95868584 283.50715637 160.0533905 C285.28292191 157.6850221 285.24268542 156.19038132 285.27905273 153.24462891 C285.30874397 151.71338127 285.30874397 151.71338127 285.33903503 150.15119934 C285.34542496 149.05112045 285.35181488 147.95104156 285.35839844 146.81762695 C285.37634964 145.6898735 285.39430084 144.56212006 285.41279602 143.40019226 C285.46703821 139.79328161 285.50084003 136.18650432 285.53417969 132.5793457 C285.5673404 130.13596771 285.60182887 127.69260735 285.63769531 125.24926758 C285.72277268 119.25524655 285.79106361 113.26120855 285.84667969 107.2668457 C294.28892232 107.15410179 301.36292278 108.49354324 308.06542969 114.1340332 C313.82810983 120.4094942 316.30613197 126.58673805 316.25073242 135.07885742 C316.2610273 136.1998735 316.2610273 136.1998735 316.27153015 137.34353638 C316.28971326 139.79473296 316.2859725 142.24528416 316.28027344 144.6965332 C316.28483981 146.41374924 316.29014674 148.13096346 316.29615784 149.84817505 C316.30507265 153.44076986 316.30268504 157.03314219 316.29272461 160.62573242 C316.2812458 165.21095818 316.30143773 169.79541255 316.33064175 174.38053703 C316.34906265 177.92551486 316.34869946 181.47030992 316.34300423 185.01532364 C316.34285168 186.70487677 316.34884016 188.39444282 316.3612957 190.08395004 C316.43189637 201.23097708 316.04596732 210.82640256 307.84667969 219.2668457 C301.18707717 224.33393457 295.37117445 225.60150268 287.23339844 225.4855957 C286.40716476 225.47935181 285.58093109 225.47310791 284.72966003 225.4666748 C275.34057678 225.33713896 266.00953894 224.57708329 256.65917969 223.7668457 C254.91509838 223.62160037 253.17095768 223.47706651 251.42675781 223.33325195 C247.23267284 222.98592583 243.03949397 222.62917578 238.84667969 222.2668457 C238.83637222 221.48423874 238.82606476 220.70163177 238.81544495 219.89530945 C238.71750566 212.52338021 238.61499629 205.15153547 238.50734043 197.77974224 C238.45215385 193.98974691 238.39874068 190.19974381 238.34936523 186.40966797 C238.30165874 182.75269172 238.24931369 179.09580871 238.19373894 175.43894386 C238.17334386 174.0431125 238.15462608 172.6472556 238.13760567 171.25137901 C238.11349892 169.29773469 238.08289923 167.34417373 238.05200195 165.390625 C238.03645767 164.2780986 238.02091339 163.1655722 238.00489807 162.01933289 C237.96174224 159.17659284 237.96174224 159.17659284 236.84667969 156.2668457 C235.38875085 156.21284834 233.93025257 156.17405394 232.47167969 156.1418457 C231.65957031 156.11864258 230.84746094 156.09543945 230.01074219 156.0715332 C227.63325726 156.0531452 227.63325726 156.0531452 225.84667969 158.2668457 C225.51435284 160.97719209 225.51435284 160.97719209 225.52783203 164.18530273 C225.50796234 165.42643829 225.48809265 166.66757385 225.46762085 167.94631958 C225.45574358 169.30576397 225.44408077 170.66521026 225.43261719 172.0246582 C225.41391239 173.41186688 225.3943395 174.79906411 225.37393188 176.18624878 C225.32253157 179.83910375 225.28294844 183.49199564 225.24578857 187.14501953 C225.2057982 190.87191967 225.15468329 194.5986652 225.10449219 198.32543945 C225.0076395 205.63913558 224.92326494 212.9529063 224.84667969 220.2668457 C217.05469988 220.38380449 209.42943204 220.10334248 201.67871094 219.3137207 C200.65161011 219.21345078 199.62450928 219.11318085 198.56628418 219.00987244 C195.26325218 218.6851975 191.96121574 218.35148581 188.65917969 218.0168457 C186.38013564 217.78995176 184.10108285 217.5631457 181.82202148 217.33642578 C164.13203133 215.56159643 146.4777969 213.5528995 128.84667969 211.2668457 C128.82162354 210.10113037 128.79656738 208.93541504 128.77075195 207.734375 C128.67663277 203.41248439 128.57642299 199.09075281 128.47436523 194.76904297 C128.43103347 192.89798704 128.38935711 191.02689201 128.34936523 189.15576172 C128.2916202 186.4674094 128.22793788 183.77925355 128.16308594 181.09106445 C128.1380172 179.83467415 128.1380172 179.83467415 128.11244202 178.55290222 C128.02753908 175.23011282 127.90417296 172.43932552 126.84667969 169.2668457 C125.38875085 169.21284834 123.93025257 169.17405394 122.47167969 169.1418457 C121.65957031 169.11864258 120.84746094 169.09543945 120.01074219 169.0715332 C117.63325726 169.0531452 117.63325726 169.0531452 115.84667969 171.2668457 C115.60098697 174.05901362 115.47304831 176.75925175 115.43261719 179.5559082 C115.41325104 180.37433197 115.39388489 181.19275574 115.37393188 182.03598022 C115.31406887 184.65449547 115.26772437 187.27305452 115.22167969 189.8918457 C115.18350604 191.66530256 115.14445468 193.43874076 115.10449219 195.2121582 C115.00836197 199.56356945 114.92435618 203.9150675 114.84667969 208.2668457 C107.16570617 207.72856861 99.53514321 207.08550902 91.90917969 206.0168457 C90.99515381 205.88971191 90.08112793 205.76257813 89.1394043 205.6315918 C69.06789604 202.77681481 49.13429338 199.36787846 29.37207031 194.83569336 C26.99838744 194.30101808 24.62084728 193.79838909 22.23730469 193.30981445 C-26.12290593 183.29726009 -26.12290593 183.29726009 -41.15332031 168.2668457 C-40.98314498 165.31241284 -40.67264132 163.77986427 -38.54394531 161.67700195 C-17.77565708 148.60207596 6.75096045 142.57956867 30.60839844 137.91918945 C31.70522949 137.70335205 32.80206055 137.48751465 33.93212891 137.26513672 C36.04141345 136.85773746 38.15372359 136.46562608 40.26904297 136.09082031 C41.2189209 135.90914307 42.16879883 135.72746582 43.14746094 135.5402832 C43.98446533 135.38994629 44.82146973 135.23960937 45.68383789 135.0847168 C48.46312032 134.03374082 49.39527203 132.82905772 50.84667969 130.2668457 C50.85342895 127.14004471 50.85342895 127.14004471 49.84667969 124.2668457 C45.71179425 121.51025541 42.51243163 122.46264223 37.84667969 123.2668457 C32.72825783 124.29331845 27.63897224 125.44739318 22.55371094 126.6262207 C11.02430324 129.16239888 4.3516182 126.53940454 -5.44921875 120.3840332 C-23.40963827 108.6094086 -35.18112307 91.95327586 -40.02368164 70.99829102 C-43.48309535 53.87505274 -41.11085358 36.46986593 -34.88525391 20.29467773 C-34.11489796 18.16039606 -33.50912595 16.00837155 -32.89160156 13.82543945 C-31.41274413 9.33233135 -29.9614379 5.26783591 -26.15332031 2.2668457 C-19.35938947 -0.06884891 -12.00513443 0.0257629 -4.89257812 0.22705078 C-2.24485166 0.32825138 -2.24485166 0.32825138 0 0 Z " fill="#FD8F00" transform="translate(55.1533203125,217.733154296875)"/>
<path d="M0 0 C0.70068604 -0.00555908 1.40137207 -0.01111816 2.12329102 -0.0168457 C16.1425693 0.17605746 28.79958442 6.33622125 38.9375 15.75 C47.79591232 25.30776066 47.79591232 25.30776066 49.3125 30.3125 C54.52756814 30.78458885 54.52756814 30.78458885 59.25 29.125 C60.55119969 26.90530642 60.84921617 24.82746937 61.3125 22.3125 C64.53433132 20.70158434 68.02684491 21.12797114 71.5625 21.125 C72.68978516 21.10663086 72.68978516 21.10663086 73.83984375 21.08789062 C78.3280374 21.07614143 82.19731853 21.30006016 86.3125 23.3125 C86.51875 24.529375 86.725 25.74625 86.9375 27 C87.50612357 30.31597324 88.05983524 31.12952244 90.84765625 33.1484375 C92.98250277 34.31770908 95.12472329 35.47359975 97.2734375 36.6171875 C106.46456684 41.74437276 112.41790078 51.22360712 115.5 61.12890625 C116.50053835 65.53620168 116.57298651 69.81038493 116.5 74.3125 C116.4990332 75.44558594 116.4990332 75.44558594 116.49804688 76.6015625 C116.4690583 80.35075122 116.26527827 83.97391066 115.73828125 87.6875 C115.05864977 91.25884487 115.05864977 91.25884487 116.3125 94.3125 C117.96785657 95.00677433 119.63678638 95.66891155 121.3125 96.3125 C130.10340604 102.52604056 134.9404117 110.19623509 138.3125 120.3125 C139.27354063 131.26206124 137.6698564 141.0680907 131.1875 150.125 C124.39134774 158.12645277 115.73569868 163.55599568 105.24609375 164.625 C95.2667658 165.00202302 87.31959296 163.04700313 79.625 156.5625 C76.81586239 154.24408518 74.8687988 152.77556747 71.1875 152.5 C66.84829312 153.4098337 65.54376045 154.51147188 62.4609375 157.46875 C41.89000559 175.12234974 14.15839735 177.6584373 -11.6875 176.3125 C-31.56038326 174.73690056 -52.30376273 167.69623727 -66.6875 153.3125 C-70.78158268 152.72763105 -73.31858954 152.40487995 -76.83203125 154.734375 C-77.54746094 155.33765625 -78.26289063 155.9409375 -79 156.5625 C-86.75919863 163.10144859 -94.54000266 164.7586652 -104.546875 164.74609375 C-108.35940196 164.21973742 -111.57548681 163.61428222 -114.6875 161.3125 C-116.88824338 158.36560905 -118.45118601 155.17240453 -120.0625 151.875 C-124.72251746 142.85916065 -129.85125952 135.01428687 -136.43359375 127.25390625 C-138.35014381 124.28653746 -137.90665535 122.26326016 -137.3828125 118.875 C-134.68389751 108.92843688 -128.15382656 101.11516196 -119.8125 95.3125 C-117.6875 94.3125 -117.6875 94.3125 -115.6875 94.3125 C-115.71368408 93.43625977 -115.73986816 92.56001953 -115.7668457 91.65722656 C-115.85302693 88.34699468 -115.91520257 85.03798623 -115.9621582 81.72705078 C-115.98701385 80.30530771 -116.02091201 78.88368839 -116.06469727 77.46240234 C-116.48241092 63.53533784 -113.31095144 52.73957995 -103.6875 42.3125 C-98.13395015 36.47596672 -92.16557793 33.20869962 -84.6875 30.3125 C-83.57375 29.879375 -82.46 29.44625 -81.3125 29 C-73.17588022 27.45684797 -65.52682456 27.80391614 -57.6875 30.3125 C-54.25075487 30.82830566 -54.25075487 30.82830566 -50.6875 30.3125 C-48.08478575 28.12374642 -48.08478575 28.12374642 -46.0625 25.125 C-43.15090401 21.19907545 -40.22036002 17.69744639 -36.6875 14.3125 C-36.13707031 13.77625 -35.58664062 13.24 -35.01953125 12.6875 C-25.15807823 3.7640258 -13.09714771 0.08683035 0 0 Z " fill="#00A300" transform="translate(350.6875,68.6875)"/>
<path d="M0 0 C5.99935795 -0.69018489 9.35071105 2.30499489 13.81933594 5.80786133 C14.73585937 6.55745117 15.65238281 7.30704102 16.59667969 8.0793457 C17.99466797 9.18632812 17.99466797 9.18632812 19.42089844 10.31567383 C21.15152506 11.68751201 22.87592706 13.06726801 24.59179688 14.45751953 C25.3359082 15.05459717 26.08001953 15.6516748 26.84667969 16.2668457 C27.53044678 16.82742676 28.21421387 17.38800781 28.91870117 17.96557617 C31.39468767 19.63671813 33.54446424 19.91391487 36.50537109 19.79663086 C41.60115738 18.64356973 45.77635239 15.35675988 50.03417969 12.4543457 C51.96509612 11.17689137 53.89608329 9.89954397 55.82714844 8.62231445 C57.09401489 7.76609497 57.09401489 7.76609497 58.38647461 6.89257812 C59.19834229 6.35608643 60.01020996 5.81959473 60.84667969 5.2668457 C61.67208252 4.68201416 62.49748535 4.09718262 63.34790039 3.49462891 C65.84667969 2.2668457 65.84667969 2.2668457 68.38208008 2.41796875 C70.95980263 3.30580841 72.9908199 4.37173696 75.28027344 5.84887695 C76.09431641 6.36901367 76.90835938 6.88915039 77.74707031 7.42504883 C79.00293945 8.24392578 79.00293945 8.24392578 80.28417969 9.0793457 C81.11755859 9.61366211 81.9509375 10.14797852 82.80957031 10.69848633 C83.62490234 11.22249023 84.44023437 11.74649414 85.28027344 12.28637695 C86.07288574 12.79507324 86.86549805 13.30376953 87.68212891 13.82788086 C89.48810506 15.02847002 91.22647373 16.32996571 92.94433594 17.65356445 C96.70396539 19.74337194 99.71454871 20.34212493 103.84667969 19.2668457 C107.17394903 17.38979268 110.00299619 15.04676697 112.90917969 12.5793457 C115.18795463 10.71209636 117.46916845 8.84817611 119.75732422 6.99243164 C121.04823064 5.9262799 122.31584376 4.83025683 123.54150391 3.68969727 C128.02853303 -0.16874048 131.85740479 -0.1854334 137.65136719 0.1340332 C138.70582031 0.21911133 139.76027344 0.30418945 140.84667969 0.3918457 C141.90113281 0.4537207 142.95558594 0.5155957 144.04199219 0.5793457 C146.98250316 0.76358825 149.91216884 1.00549373 152.84667969 1.2668457 C153.93613892 1.33379639 153.93613892 1.33379639 155.04760742 1.40209961 C157.96076363 1.65555071 159.5171703 1.9423835 161.63183594 4.0246582 C173.34026181 25.72284194 180.35278603 50.93639314 173.82788086 75.39941406 C171.73577025 82.36990239 168.66355242 89.10836617 164.96411133 95.37353516 C163.80063469 97.27954449 163.80063469 97.27954449 162.82104492 99.43164062 C160.57913122 103.3983793 158.87746572 104.97914696 154.41601562 106.22436523 C150.18730496 106.93141885 145.93179051 107.26328956 141.65917969 107.5793457 C139.44648779 107.76833092 137.23551373 107.96775428 135.02507019 108.18144226 C133.02844238 108.3706748 131.02897219 108.52917039 129.02954102 108.68603516 C125.89644239 109.01918265 125.89644239 109.01918265 123.94702148 110.65429688 C122.49678572 112.77961465 122.18798395 114.74119417 121.84667969 117.2668457 C119.13882974 117.60457309 116.43050972 117.93715257 113.72167969 118.2668457 C112.96113281 118.36223633 112.20058594 118.45762695 111.41699219 118.5559082 C107.19758017 119.06514758 103.10663625 119.37572638 98.84667969 119.2668457 C98.69199219 120.4115332 98.69199219 120.4115332 98.53417969 121.5793457 C97.77223443 124.55785898 97.17654727 125.35624814 94.84667969 127.2668457 C89.45070619 129.29304459 82.54438915 130.33087578 76.84667969 129.2668457 C75.08886719 127.87231445 75.08886719 127.87231445 73.84667969 126.2668457 C73.84667969 125.6068457 73.84667969 124.9468457 73.84667969 124.2668457 C72.88628784 124.44244019 72.88628784 124.44244019 71.90649414 124.62158203 C68.99504982 125.1369169 66.07812333 125.60843012 63.15917969 126.0793457 C61.64807617 126.35681641 61.64807617 126.35681641 60.10644531 126.63989258 C57.27946804 127.0784006 54.70483781 127.42528273 51.84667969 127.2668457 C50.13007254 125.65166291 48.4590112 123.98613121 46.84667969 122.2668457 C43.74011981 121.92329864 40.87992155 122.60615089 37.84667969 123.2668457 C36.43080566 123.55736816 36.43080566 123.55736816 34.98632812 123.85375977 C30.83159449 124.73303296 26.69072666 125.66720843 22.55371094 126.6262207 C11.02430324 129.16239888 4.3516182 126.53940454 -5.44921875 120.3840332 C-23.40963827 108.6094086 -35.18112307 91.95327586 -40.02368164 70.99829102 C-43.48309535 53.87505274 -41.11085358 36.46986593 -34.88525391 20.29467773 C-34.11489796 18.16039606 -33.50912595 16.00837155 -32.89160156 13.82543945 C-31.41274413 9.33233135 -29.9614379 5.26783591 -26.15332031 2.2668457 C-19.35938947 -0.06884891 -12.00513443 0.0257629 -4.89257812 0.22705078 C-2.24485166 0.32825138 -2.24485166 0.32825138 0 0 Z " fill="#FE6319" transform="translate(55.1533203125,217.733154296875)"/>
<path d="M0 0 C3.61269686 2.35245377 5.16104409 4.36805323 6.6875 8.375 C7.56333581 11.06559565 7.56333581 11.06559565 10.6875 12.75 C15.94418855 12.57550411 18.56452567 10.57961148 22.5 7.25 C26.82253119 3.89990475 30.02626925 1.49342182 35.58203125 1.40234375 C39.35790689 2.02581858 42.61371077 3.47967126 45.6875 5.75 C47.87149262 9.02598894 47.88784804 9.32856116 47.34765625 12.953125 C45.87547687 21.93175208 45.87547687 21.93175208 48.23046875 30.3125 C50.62227204 32.14127703 52.97844929 33.43780356 55.6875 34.75 C57.61696398 35.91659167 59.5336826 37.10450717 61.4375 38.3125 C62.35789062 38.88613281 63.27828125 39.45976562 64.2265625 40.05078125 C68.37241142 42.91339122 71.07069763 45.89959289 72.6875 50.75 C72.9609375 52.73046875 72.9609375 52.73046875 73.0625 54.9375 C73.11148438 55.65292969 73.16046875 56.36835938 73.2109375 57.10546875 C71.93156435 63.56916744 68.22098926 67.68541878 62.859375 71.3046875 C61.06284021 72.428835 59.25520228 73.53541142 57.4375 74.625 C55.61739283 75.74350162 53.79955536 76.86570792 51.984375 77.9921875 C51.18354492 78.4754248 50.38271484 78.95866211 49.55761719 79.45654297 C47.55047439 80.62302994 47.55047439 80.62302994 46.6875 82.75 C46.47372279 88.35703213 46.47372279 88.35703213 47.6875 93.75 C48.06685127 97.84699372 48.13678789 100.02793017 45.9375 103.5625 C41.9008697 107.48700168 38.15435313 108.46327828 32.609375 108.4140625 C28.18226455 107.40790103 24.89685024 104.8387047 21.41821289 102.03979492 C17.56664564 99.00945994 14.61048831 97.79087891 9.6875 97.75 C6.97878418 99.51327539 6.08834834 101.82466703 4.875 104.75 C3.40513152 107.77881989 2.7246464 108.72358478 -0.125 110.75 C-5.0581926 112.29766827 -8.53174791 112.57727853 -13.2890625 110.3671875 C-18.58467471 107.18307685 -23.16780998 103.08798679 -27.66723633 98.88500977 C-28.71258922 97.92898674 -29.78050253 96.99699985 -30.87036133 96.09204102 C-35.65360775 92.10612336 -39.7187022 88.29257075 -40.78399658 81.93707275 C-41.25388366 75.18603933 -40.93123697 68.48178296 -40.3125 61.75 C-39.51736496 61.74413376 -38.72222992 61.73826752 -37.90299988 61.73222351 C-30.41320404 61.67434348 -22.92374267 61.60229442 -15.43424511 61.51428509 C-11.58370744 61.46953829 -7.73327662 61.43029202 -3.88256836 61.40356445 C-0.16708435 61.37757393 3.5479894 61.33720265 7.26321983 61.28681374 C8.68135161 61.27011604 10.09955439 61.25861983 11.51777077 61.25238609 C13.5026024 61.24277746 15.48730582 61.21303716 17.47192383 61.18237305 C19.16736076 61.16571846 19.16736076 61.16571846 20.89704895 61.14872742 C23.6845283 60.97037954 23.6845283 60.97037954 25.54862976 59.41047668 C27.35066684 56.78310049 27.13765628 54.83678591 26.6875 51.75 C23.50271643 48.52055301 20.87208773 48.36184588 16.45019531 48.31762695 C15.18919006 48.29783279 13.92818481 48.27803864 12.62896729 48.25764465 C11.25785471 48.25087541 9.88674051 48.24442848 8.515625 48.23828125 C7.10885043 48.22143099 5.70209089 48.20328027 4.29534912 48.18388367 C0.59975886 48.13641461 -3.09577048 48.10658559 -6.79156494 48.08044434 C-10.56559276 48.05062295 -14.33941074 48.00409811 -18.11328125 47.95898438 C-25.51291664 47.87298663 -32.91256735 47.80562603 -40.3125 47.75 C-40.51724001 44.06332998 -40.64059831 40.37813257 -40.75 36.6875 C-40.80865234 35.64916016 -40.86730469 34.61082031 -40.92773438 33.54101562 C-41.0972944 25.91081456 -41.0972944 25.91081456 -38.79634094 22.50740051 C-37.05076286 20.75627179 -35.28618904 19.23501843 -33.3125 17.75 C-32.28189453 16.82767578 -32.28189453 16.82767578 -31.23046875 15.88671875 C-30.65941406 15.40847656 -30.08835937 14.93023437 -29.5 14.4375 C-25.28771927 10.82462764 -21.45422267 6.88462565 -17.609375 2.88671875 C-12.30669506 -2.0462165 -6.66060446 -2.51343565 0 0 Z " fill="#A7D81E" transform="translate(425.3125,329.25)"/>
<path d="M0 0 C4.86743502 1.62247834 6.33066292 6.01882749 8.8125 10.3125 C9.34037109 11.18068359 9.86824219 12.04886719 10.41210938 12.94335938 C10.90130859 13.78318359 11.39050781 14.62300781 11.89453125 15.48828125 C12.34675049 16.25696533 12.79896973 17.02564941 13.26489258 17.81762695 C14 20 14 20 13.26293945 22.16577148 C11.61378236 24.5609227 9.70064353 26.00756739 7.375 27.75 C-0.51017152 33.89929922 -8.44507373 40.91861574 -13 50 C-13.50037035 53.07933049 -13.50037035 53.07933049 -13 56 C-10.89209237 58.67655248 -9.04980086 59.50452525 -5.78125 60.2890625 C-4.94062012 60.50353027 -4.09999023 60.71799805 -3.23388672 60.93896484 C-2.3317041 61.16535645 -1.42952148 61.39174805 -0.5 61.625 C19.78314576 67.08598183 35.74764051 76.59943022 51 91 C51.64582031 91.60457031 52.29164063 92.20914063 52.95703125 92.83203125 C54.35155695 94.17430306 55.68427417 95.58040108 57 97 C57 97.66 57 98.32 57 99 C56.05084717 98.89002686 56.05084717 98.89002686 55.08251953 98.77783203 C44.0760989 97.6769909 34.39294987 96.87555595 25.21630859 103.81201172 C22.35518963 106.2452196 19.59644405 108.76589688 16.87841797 111.35742188 C14.13833702 113.75347915 11.22873601 115.33734791 8 117 C4.85187478 115.12882881 1.70694552 113.25234715 -1.4375 111.375 C-2.31599609 110.85292969 -3.19449219 110.33085937 -4.09960938 109.79296875 C-4.97294922 109.27089844 -5.84628906 108.74882812 -6.74609375 108.2109375 C-8.06456299 107.42541504 -8.06456299 107.42541504 -9.40966797 106.62402344 C-11.94256267 105.03601066 -14.31376181 103.30725545 -16.72265625 101.5390625 C-19.6270467 99.62300037 -20.81595024 99.01665415 -24.3671875 98.6953125 C-29.80045432 100.64661478 -34.33961985 103.68262256 -39.125 106.875 C-41.0649214 108.14350871 -43.00501959 109.41174711 -44.9453125 110.6796875 C-45.79625488 111.24413574 -46.64719727 111.80858398 -47.52392578 112.39013672 C-48.34103027 112.9213916 -49.15813477 113.45264648 -50 114 C-50.84675293 114.60473145 -51.69350586 115.20946289 -52.56591797 115.83251953 C-55 117 -55 117 -57.01904297 116.40258789 C-57.67275879 115.93973389 -58.32647461 115.47687988 -59 115 C-59.74523926 114.47591553 -60.49047852 113.95183105 -61.25830078 113.41186523 C-62.06251465 112.80028564 -62.86672852 112.18870605 -63.6953125 111.55859375 C-65.01595703 110.55989258 -65.01595703 110.55989258 -66.36328125 109.54101562 C-67.27464844 108.84685547 -68.18601563 108.15269531 -69.125 107.4375 C-70.93904039 106.05979611 -72.7540944 104.68342551 -74.5703125 103.30859375 C-75.37227051 102.69814209 -76.17422852 102.08769043 -77.00048828 101.45874023 C-80.35866966 99.00878495 -82.31890432 98.88062581 -86.4453125 98.90234375 C-87.52167969 98.90556641 -88.59804687 98.90878906 -89.70703125 98.91210938 C-91.39892578 98.92467773 -91.39892578 98.92467773 -93.125 98.9375 C-94.26066406 98.94201172 -95.39632812 98.94652344 -96.56640625 98.95117188 C-99.37765638 98.96298385 -102.1888023 98.97945493 -105 99 C-92.24265465 78.56434609 -67.04926801 66.29012686 -44.36328125 60.734375 C-40.54136379 59.89985644 -36.71600012 59.12590957 -32.85546875 58.4921875 C-30.77058525 58.10536541 -30.77058525 58.10536541 -29 56 C-28.48896575 53.57775672 -28.06614376 51.19283546 -27.6875 48.75 C-24.37623476 29.57234562 -16.3884558 13.99193897 -1.8515625 1.09375 C-1.24054688 0.7328125 -0.62953125 0.371875 0 0 Z " fill="#A7D81E" transform="translate(146,106)"/>
<path d="M0 0 C1.19625 0.4125 2.3925 0.825 3.625 1.25 C12.28926685 4.12894943 20.91962777 6.86784163 30 8 C34.04283927 18.24337364 37.70676162 28.21697446 39.49316406 39.12255859 C40.42789434 44.20735074 42.01243762 46.73293176 46 50 C48.86608129 51.43304064 50.81300783 51.30644155 54 51 C57.84697217 49.01288715 59.65488656 47.84032058 61.3203125 43.78515625 C61.58585937 42.55667969 61.85140625 41.32820313 62.125 40.0625 C62.43788653 38.71432715 62.75303352 37.36667714 63.0703125 36.01953125 C63.22274414 35.34486816 63.37517578 34.67020508 63.53222656 33.97509766 C64.48615306 29.94729736 65.74884426 26.01768359 67.03515625 22.0859375 C68.04589978 19.01410614 68.04589978 19.01410614 68.68359375 15.8515625 C69.46028616 12.785036 70.15596524 10.57608876 72 8 C75.0918257 6.61560043 77.90941293 6.1106059 81.2578125 5.61328125 C85.44139584 4.92766269 89.20341065 3.72114809 93.1875 2.3125 C99.77345411 0 99.77345411 0 102 0 C101.27551272 4.70916735 99.58100866 8.89502455 97.875 13.3125 C89.50706716 35.6941216 84.53739863 58.60644821 80 82 C77.8983396 79.94600612 76.01832663 78.02579303 74.3125 75.625 C68.95740731 69.54624614 61.031941 64.75335782 52.89764404 63.73742676 C50.70680096 63.65645572 48.53557051 63.66154828 46.34375 63.70703125 C45.55601196 63.71127609 44.76827393 63.71552094 43.95666504 63.71989441 C41.4707441 63.73652383 38.98567081 63.77414386 36.5 63.8125 C34.80209514 63.82756729 33.10417742 63.84125209 31.40625 63.85351562 C27.27051281 63.88637534 23.1353995 63.93804526 19 64 C18.75548096 63.0001709 18.51096191 62.0003418 18.2590332 60.97021484 C16.08315263 52.13245884 13.77137907 43.35404014 11.1875 34.625 C10.84783203 33.47322266 10.50816406 32.32144531 10.15820312 31.13476562 C7.82259266 23.3652859 5.19461234 15.78412649 2.08276367 8.29150391 C0.86501833 5.35192162 0 3.21905133 0 0 Z " fill="#A6D81E" transform="translate(300,249)"/>
<path d="M0 0 C2.30604451 3.33095318 2.192458 5.4699729 1.6875 9.4375 C-1.41363758 13.44512395 -5.54146161 13.74626294 -10.3125 14.4375 C-13.40516116 14.81236802 -16.24058632 15.03226173 -19.3125 14.4375 C-21.9375 12.3125 -21.9375 12.3125 -23.3125 9.4375 C-23.25000095 6.31254769 -22.99864075 4.36210278 -21.12109375 1.83203125 C-18.64309706 -0.0786487 -16.51794545 -0.30060833 -13.4375 -0.75 C-12.40882813 -0.90855469 -11.38015625 -1.06710937 -10.3203125 -1.23046875 C-3.01466566 -2.03693626 -3.01466566 -2.03693626 0 0 Z " fill="#080300" transform="translate(151.3125,332.5625)"/>
</svg>
